<svg id="visual" viewBox="0 0 1920 1080" width="1920" height="1080" xmlns="http://www.w3.org/2000/svg" xmlns:xlink="http://www.w3.org/1999/xlink" version="1.1"><rect x="0" y="0" width="1920" height="1080" fill="#121f28"></rect><path d="M0 669L80 668.7C160 668.3 320 667.7 480 690.3C640 713 800 759 960 783.8C1120 808.7 1280 812.3 1440 803.8C1600 795.3 1760 774.7 1840 764.3L1920 754L1920 1081L1840 1081C1760 1081 1600 1081 1440 1081C1280 1081 1120 1081 960 1081C800 1081 640 1081 480 1081C320 1081 160 1081 80 1081L0 1081Z" fill="#fa7268"></path><path d="M0 826L80 829.2C160 832.3 320 838.7 480 829C640 819.3 800 793.7 960 779.5C1120 765.3 1280 762.7 1440 770.5C1600 778.3 1760 796.7 1840 805.8L1920 815L1920 1081L1840 1081C1760 1081 1600 1081 1440 1081C1280 1081 1120 1081 960 1081C800 1081 640 1081 480 1081C320 1081 160 1081 80 1081L0 1081Z" fill="#e34c67"></path><path d="M0 930L80 938.3C160 946.7 320 963.3 480 970.2C640 977 800 974 960 958.7C1120 943.3 1280 915.7 1440 910C1600 904.3 1760 920.7 1840 928.8L1920 937L1920 1081L1840 1081C1760 1081 1600 1081 1440 1081C1280 1081 1120 1081 960 1081C800 1081 640 1081 480 1081C320 1081 160 1081 80 1081L0 1081Z" fill="#c62368"></path></svg>