<svg width="4096" height="2304" preserveAspectRatio="none" viewBox="0 0 4096 2304" fill="none" xmlns="http://www.w3.org/2000/svg">
<g clip-path="url(#clip0)">
<path  d="M8738.13 0H0V4915.2H8738.13V0Z" fill="#121F28"/>
<path d="M0 997.2L170.667 996.56C341.333 995.707 682.667 994.427 1024 1042.64C1365.33 1091.07 1706.67 1189.2 2048 1242.11C2389.33 1295.23 2730.67 1302.91 3072 1284.77C3413.33 1266.64 3754.67 1222.69 3925.33 1200.51L4096 1178.53V1876.13H3925.33C3754.67 1876.13 3413.33 1876.13 3072 1876.13C2730.67 1876.13 2389.33 1876.13 2048 1876.13C1706.67 1876.13 1365.33 1876.13 1024 1876.13C682.667 1876.13 341.333 1876.13 170.667 1876.13H0V997.2Z" fill="#FA7268"/>
<path class="test01" d="M0 1332.13L170.667 1338.96C341.333 1345.57 682.667 1359.23 1024 1338.53C1365.33 1317.84 1706.67 1263.23 2048 1232.93C2389.33 1202.64 2730.67 1197.09 3072 1213.73C3413.33 1230.37 3754.67 1269.63 3925.33 1289.04L4096 1308.67V1876.13H3925.33C3754.67 1876.13 3413.33 1876.13 3072 1876.13C2730.67 1876.13 2389.33 1876.13 2048 1876.13C1706.67 1876.13 1365.33 1876.13 1024 1876.13C682.667 1876.13 341.333 1876.13 170.667 1876.13H0V1332.13Z" fill="#E34C67"/>
<path d="M0 1554L170.667 1571.71C341.333 1589.63 682.667 1625.04 1024 1639.76C1365.33 1654.27 1706.67 1647.87 2048 1615.23C2389.33 1582.37 2730.67 1523.49 3072 1511.33C3413.33 1499.17 3754.67 1534.16 3925.33 1551.44L4096 1568.93V1876.13H3925.33C3754.67 1876.13 3413.33 1876.13 3072 1876.13C2730.67 1876.13 2389.33 1876.13 2048 1876.13C1706.67 1876.13 1365.33 1876.13 1024 1876.13C682.667 1876.13 341.333 1876.13 170.667 1876.13H0V1554Z" fill="#C62368"/>
<rect y="1825" width="4096" height="479" fill="#C62368"/>
</g>
<defs>
<clipPath id="clip0">
<rect width="4096" height="2304" fill="white"/>
</clipPath>
</defs>
</svg>
